<svg width="80" height="72" viewBox="0 0 80 72" fill="none" xmlns="http://www.w3.org/2000/svg">
<path d="M33.2863 6.91859C32.887 16.9682 31.5241 22.9233 24.9934 31.8967C24.1773 30.6558 22.7486 29.8152 21.1196 29.8152H4.59122C2.07945 29.8152 0 31.7999 0 34.1973V65.7486C0 68.146 2.07945 70.1307 4.59122 70.1307H21.1196C22.7033 70.1307 24.1089 69.3428 24.936 68.1588C25.8911 68.8932 26.7748 69.5528 27.6907 70.076C29.2049 70.9406 30.9162 71.4604 33.2576 71.6919C37.9399 72.1547 45.6239 71.8126 63.3588 71.8836C63.7753 71.8748 64.1877 71.7286 64.5066 71.4728C68.0756 68.694 69.6256 66.0325 70.3316 63.0372C70.679 62.9351 70.9931 62.7321 71.2212 62.462C73.8903 59.2782 74.856 55.6048 74.2342 52.4379C74.4899 52.3249 74.7177 52.1546 74.8942 51.9449C78.0118 48.4542 78.6414 43.9842 77.5342 40.6062C79.4387 38.4562 80.2259 35.934 79.9445 33.5948C79.4959 30.6338 77.2427 27.658 74.3777 27.1859H50.7329C52.1465 18.3091 51.2094 10.1509 48.0642 4.86453C46.3661 2.01063 43.8901 0.413595 41.4357 0.0715268C37.1295 -0.471856 33.655 2.10685 33.2863 6.91859ZM40.1442 3.52245C41.9223 3.34532 43.9046 4.66408 44.8789 6.58993C47.5646 11.1041 48.6793 19.5472 46.8589 28.6101C46.6569 29.621 47.5883 30.6938 48.6666 30.6916H73.8609C75.2397 31.3667 76.1256 32.5289 76.3 33.9782C76.4688 35.382 75.8706 37.0327 74.3774 38.5794H61.4934C60.523 38.5794 59.6281 39.4062 59.6281 40.3323C59.6281 41.2585 60.5232 42.0984 61.4934 42.0851H74.1479C74.6993 44.0211 74.2754 46.5978 72.4549 49.0965H61.4934C60.523 49.0965 59.6281 49.9232 59.6281 50.8494C59.6281 51.7756 60.5232 52.6154 61.4934 52.6022H70.4749C71.0263 54.5382 70.6024 57.1149 68.7819 59.6137H61.4934C60.523 59.6137 59.6281 60.4404 59.6281 61.3665C59.6281 62.2927 60.5232 63.1325 61.4934 63.1194H66.5724C66.0063 64.9946 64.9705 66.4328 62.5838 68.3779C45.5157 68.3218 37.6014 68.5787 33.6304 68.1862C31.6057 67.986 30.6549 67.702 29.5844 67.0907C28.6196 66.5397 27.4385 65.568 25.7105 64.2423V36.9088C34.2437 26.5502 36.5368 17.841 36.959 7.05559C37.4966 4.70598 38.7612 3.66031 40.1442 3.52245ZM4.59094 33.3209H21.1193C21.6598 33.3209 22.0376 33.6814 22.0376 34.1973V65.7486C22.0376 66.2645 21.6598 66.6251 21.1193 66.6251H4.59094C4.05046 66.6251 3.6727 66.2645 3.6727 65.7486V34.1973C3.6727 33.6814 4.05046 33.3209 4.59094 33.3209ZM12.8551 55.2041C11.3337 55.2041 10.1004 56.3813 10.1004 57.8334C10.1004 59.2855 11.3337 60.4627 12.8551 60.4627C14.3765 60.4627 15.6099 59.2855 15.6099 57.8334C15.6099 56.3813 14.3765 55.2041 12.8551 55.2041Z" fill="#1B3344"/>
</svg>
