<svg width="86" height="79" viewBox="0 0 86 79" fill="none" xmlns="http://www.w3.org/2000/svg">
<path d="M46.7111 45.2162C42.0494 45.2162 37.4923 43.8902 33.6163 41.406C29.7402 38.9218 26.7192 35.3909 24.9352 31.2598C23.1513 27.1287 22.6845 22.583 23.594 18.1975C24.5034 13.8119 26.7482 9.78356 30.0446 6.62177C33.3409 3.45997 37.5407 1.30676 42.1128 0.434418C46.6849 -0.43792 51.4241 0.00979576 55.7309 1.72095C60.0378 3.4321 63.7189 6.32984 66.3088 10.0477C68.8987 13.7656 70.2811 18.1366 70.2811 22.6081C70.2758 28.6026 67.7908 34.3501 63.3717 38.5888C58.9526 42.8276 52.9606 45.2111 46.7111 45.2162ZM46.7111 3.27085C42.7214 3.27085 38.8213 4.40576 35.5042 6.53204C32.187 8.65833 29.6018 11.6805 28.0755 15.2162C26.5491 18.7519 26.1503 22.6424 26.9294 26.3956C27.7084 30.1488 29.6304 33.596 32.4523 36.3014C35.2741 39.0067 38.869 40.8485 42.7822 41.594C46.6955 42.3394 50.7513 41.9549 54.4367 40.4891C58.1221 39.0233 61.2716 36.5421 63.4867 33.3592C65.7018 30.1764 66.883 26.4349 66.8811 22.6081C66.8731 17.4802 64.7452 12.5647 60.964 8.93962C57.1829 5.31455 52.0571 3.27592 46.7111 3.27085Z" fill="#1B3344"/>
<path d="M83.891 51.1632C82.9325 50.0588 81.6045 49.307 80.1331 49.036C78.6618 48.7649 77.138 48.9913 75.821 49.6765L73.961 47.5087C73.1468 46.5934 72.0144 45.9919 70.7735 45.8155C69.5325 45.6392 68.267 45.8999 67.211 46.5496L65.381 47.7102L64.281 46.4536C63.4685 45.539 62.3378 44.9378 61.0986 44.7615C59.8594 44.5851 58.5955 44.8455 57.541 45.4944L45.121 53.2543L31.321 47.8061C29.1841 46.9698 26.8536 46.6943 24.5689 47.0079C22.2842 47.3214 20.1278 48.2127 18.3211 49.5902L0.721057 63.0188C0.531392 63.147 0.371077 63.311 0.249981 63.5008C0.128885 63.6906 0.04957 63.9022 0.0169203 64.1225C-0.0157294 64.3428 -0.00102369 64.5672 0.0601322 64.7818C0.121288 64.9965 0.2276 65.1968 0.372523 65.3706C0.517446 65.5443 0.697913 65.6878 0.902815 65.7922C1.10772 65.8965 1.33272 65.9595 1.56396 65.9773C1.79521 65.9951 2.02781 65.9674 2.24744 65.8957C2.46707 65.824 2.66909 65.71 2.84106 65.5607L20.441 52.132C21.7798 51.1084 23.3795 50.4468 25.0745 50.2157C26.7695 49.9847 28.498 50.1926 30.081 50.8179L54.481 60.4098C55.2235 60.7296 55.8081 61.3127 56.1123 62.0368C56.4165 62.7609 56.4167 63.5698 56.1129 64.294C55.8091 65.0183 55.2248 65.6016 54.4825 65.9218C53.7402 66.2419 52.8975 66.2741 52.131 66.0115L35.6211 59.8343C35.4108 59.7417 35.1831 59.6913 34.9518 59.6861C34.7206 59.6808 34.4906 59.7209 34.2761 59.8039C34.0616 59.8869 33.8669 60.0109 33.7041 60.1686C33.5413 60.3262 33.4137 60.514 33.3292 60.7206C33.2447 60.9271 33.2051 61.1481 33.2127 61.3698C33.2203 61.5916 33.275 61.8095 33.3735 62.0103C33.4719 62.2111 33.6121 62.3905 33.7853 62.5375C33.9586 62.6845 34.1613 62.7961 34.3811 62.8654L50.841 69.0905C51.6033 69.3738 52.4135 69.5202 53.231 69.5221C54.917 69.5192 56.5375 68.8957 57.7582 67.7802C58.9788 66.6647 59.7065 65.1423 59.791 63.5272L59.981 63.4313L77.181 52.6596C77.8655 52.2515 78.6881 52.1133 79.4764 52.274C80.2647 52.4346 80.9577 52.8817 81.4101 53.5214C81.8625 54.1612 82.0392 54.944 81.9033 55.706C81.7674 56.4679 81.3294 57.1499 80.681 57.609L57.381 73.4548C55.903 74.4644 54.2066 75.1413 52.4182 75.4352C50.6297 75.7292 48.7952 75.6326 47.051 75.1526L27.3811 69.8387C25.5977 69.3562 23.7194 69.2935 21.9054 69.6559C20.0914 70.0182 18.3954 70.7949 16.9611 71.9201L11.6611 76.0926C11.3955 76.3072 11.2048 76.5947 11.1147 76.9164C11.0245 77.238 11.0393 77.5785 11.1569 77.8919C11.2745 78.2053 11.4894 78.4767 11.7726 78.6694C12.0558 78.8622 12.3938 78.9671 12.7411 78.9701C13.1314 78.9739 13.5106 78.8447 13.8111 78.6056L19.1611 74.4811C20.1707 73.6873 21.3653 73.1392 22.6434 72.8837C23.9214 72.6282 25.2449 72.6727 26.501 73.0136L46.121 78.3179C48.3499 78.9212 50.6915 79.0361 52.9729 78.6542C55.2543 78.2724 57.417 77.4035 59.301 76.1117L82.651 60.266C83.3854 59.7683 84.0043 59.1301 84.4688 58.3916C84.9332 57.6531 85.2332 56.8303 85.3497 55.9751C85.4662 55.1199 85.3967 54.2508 85.1457 53.4227C84.8946 52.5945 84.4674 51.8252 83.891 51.1632ZM59.321 48.2185C59.6836 47.9979 60.117 47.9103 60.5415 47.972C60.966 48.0337 61.353 48.2405 61.631 48.5543L62.471 49.5134L52.161 56.0263L48.931 54.7506L59.321 48.2185ZM58.941 60.1796C58.2623 59.0119 57.2107 58.0839 55.941 57.5323L69.031 49.2736C69.393 49.0538 69.8252 48.9659 70.2491 49.0257C70.673 49.0856 71.0604 49.2892 71.341 49.5998L72.921 51.4606L58.941 60.1796Z" fill="#1B3344"/>
<path d="M46.9211 15.6061C48.5783 15.6583 50.2247 15.8834 51.8311 16.2775C52.266 16.392 52.7306 16.3361 53.1225 16.122C53.5145 15.908 53.8017 15.5533 53.9211 15.1361C54.0404 14.7189 53.9821 14.2733 53.7589 13.8974C53.5358 13.5214 53.166 13.2459 52.7311 13.1314C51.3811 12.8004 50.0073 12.5664 48.6211 12.4312V10.2155C48.6211 9.783 48.442 9.36824 48.1232 9.06244C47.8043 8.75664 47.3719 8.58484 46.9211 8.58484C46.4702 8.58484 46.0378 8.75664 45.719 9.06244C45.4002 9.36824 45.2211 9.783 45.2211 10.2155V12.4504C40.6611 13.0451 40.1111 16.0282 40.1111 17.3902C40.1111 20.7762 43.7511 22.1862 45.9311 23.0686L46.3511 23.2317L46.9911 23.4811C49.1911 24.3156 50.1511 24.8431 50.1511 26.3586C50.1511 27.8742 49.0911 28.6127 47.0211 28.6991H46.9211H46.6611C44.7114 28.5271 42.7981 28.0845 40.9811 27.385C40.7707 27.2969 40.5438 27.2505 40.3143 27.2488C40.0847 27.247 39.8571 27.2899 39.6453 27.3748C39.4334 27.4597 39.2417 27.5849 39.0817 27.7428C38.9217 27.9008 38.7967 28.0881 38.7142 28.2937C38.6317 28.4992 38.5935 28.7186 38.6019 28.9387C38.6102 29.1587 38.665 29.3749 38.7628 29.5741C38.8606 29.7734 38.9995 29.9515 39.1711 30.0979C39.3427 30.2442 39.5434 30.3557 39.7611 30.4256C41.5262 31.0707 43.3558 31.54 45.2211 31.826V34.0226C45.2211 34.455 45.4002 34.8698 45.719 35.1756C46.0378 35.4814 46.4702 35.6532 46.9211 35.6532C47.3719 35.6532 47.8043 35.4814 48.1232 35.1756C48.442 34.8698 48.6211 34.455 48.6211 34.0226V31.7493C51.7111 31.1738 53.5511 29.2074 53.5511 26.3107C53.5511 22.4739 50.2311 21.2078 48.2511 20.45L47.2511 20.0472C45.6911 19.4333 43.5411 18.5892 43.5411 17.3902C43.5111 16.8147 43.5111 15.6061 46.9211 15.6061Z" fill="#D8267E"/>
</svg>
