<svg width="71" height="68" viewBox="0 0 71 68" fill="none" xmlns="http://www.w3.org/2000/svg">
<path d="M64.4026 50.6393L44.4614 32.8049C44.3179 32.6687 44.1027 32.5326 43.9592 32.5326L31.2628 28.5164L18.7099 16.6041L18.5664 8.77601C18.5664 8.29952 18.2795 7.8911 17.8491 7.61882L6.65907 1.15213C6.08522 0.811778 5.36791 0.947919 4.93753 1.35634L0.418469 5.64478C-0.0119175 6.0532 -0.15538 6.7339 0.203276 7.27846L6.7308 18.0336C7.01773 18.442 7.44812 18.7143 7.95023 18.7143L16.7014 18.5781L29.4696 30.6266C29.613 30.7627 29.8282 30.8989 30.0434 30.967L42.7398 34.9831L62.4659 52.6133L62.5376 52.6814C63.8288 53.7025 68.3478 57.9228 66.698 60.1692C66.2676 60.7818 66.4111 61.6667 67.0567 62.0751C67.3436 62.2113 67.6305 62.3474 67.9174 62.3474C68.3478 62.3474 68.7782 62.1432 69.0651 61.8028C72.5082 57.1741 65.4068 51.3881 64.4026 50.6393ZM8.81101 15.9234L3.21598 6.80197L6.15696 4.01109L15.6972 9.52479L15.8407 15.7873L8.81101 15.9234Z" fill="#1B3344"/>
<path d="M63.8223 64.2584C63.8223 64.2584 61.0979 65.4262 56.2226 60.6178C50.8455 55.3287 39.0159 44.1321 37.1518 42.3461L34.7859 35.4771C34.5708 34.7902 33.7105 34.378 32.9935 34.5841C32.2049 34.7902 31.8464 35.6145 32.0615 36.3014L34.4991 43.5139C34.5708 43.72 34.7142 43.926 34.8576 44.0634C35.001 44.2008 48.3362 56.8399 54.1435 62.5412C58.015 66.3191 61.0262 67.1434 62.9619 67.1434C64.2524 67.1434 65.0411 66.7313 65.2561 66.6626C65.9731 66.3191 66.1882 65.4262 65.8297 64.808C65.3278 64.1211 64.4675 63.915 63.8223 64.2584Z" fill="#1B3344"/>
<path d="M30.5422 45.4659L17.3858 57.7362C16.0847 58.9632 15.0726 59.9858 14.1329 61.0083C12.6871 62.5762 10.5185 64.962 6.68724 64.3485C5.89207 64.2122 5.16919 64.6894 5.02462 65.4392C4.88004 66.1891 5.38606 66.8708 6.18122 67.0071C6.83181 67.1434 7.41011 67.1434 7.98842 67.1434C12.398 67.1434 15.0003 64.2122 16.3738 62.7125C17.2413 61.7581 18.181 60.8038 19.4099 59.6449L32.5663 47.3746C33.1446 46.8293 33.1446 46.0112 32.5663 45.4659C31.988 44.9206 31.1205 44.9887 30.5422 45.4659Z" fill="#D8267E"/>
<path d="M27.5676 34.0396C28.1441 33.4781 28.1441 32.6359 27.5676 32.0744C26.991 31.513 26.1261 31.513 25.5496 32.0744C25.3334 32.2148 5.87402 51.1647 2.41458 54.323C-0.972786 57.4813 -0.107927 61.1309 0.901076 62.675C1.18936 63.0961 1.62179 63.3066 2.12629 63.3066C2.41458 63.3066 2.63079 63.2365 2.84701 63.0961C3.49565 62.675 3.71187 61.8328 3.35151 61.2011C3.20737 60.9204 1.91008 58.6043 4.43258 56.3584C7.89202 53.2 26.7748 34.8116 27.5676 34.0396Z" fill="#D8267E"/>
<path d="M69.8224 9.93197C69.6777 9.51954 69.2438 9.17585 68.8098 9.03837C68.3036 8.9009 67.8696 9.03837 67.508 9.38207L61.5774 14.8124C61.5051 14.8811 56.3701 19.8303 52.7539 17.6307C52.0307 17.2183 51.7414 16.3246 51.4521 15.4998C50.8012 13.6439 51.3798 11.513 52.8986 10.0007L60.3479 2.98939C60.7095 2.6457 60.8542 2.09579 60.7095 1.68336C60.5649 1.27093 60.2033 0.858499 59.697 0.721023C59.48 0.652284 55.3576 -0.310054 51.4521 0.102377C46.6787 0.583546 43.0625 2.71444 39.0124 7.52613C35.0346 12.1316 36.7703 18.2493 37.6382 20.5864L33.4434 24.367C32.8648 24.917 32.8648 25.7418 33.3711 26.2917C33.9497 26.8416 34.8176 26.8416 35.3962 26.3605L40.2419 21.9612C40.6758 21.5488 40.8205 20.9301 40.5312 20.3802C40.5312 20.3115 37.4213 13.6439 41.1821 9.24459C45.3046 4.4329 48.4145 3.19561 51.6691 2.85191C53.2602 2.71444 54.8513 2.78318 56.2255 2.92065L50.8012 8.14477C48.4868 10.3444 47.6189 13.5751 48.6315 16.4621C48.9931 17.4932 49.5717 19.0742 51.1628 20.0365C56.8041 23.4047 63.3855 17.012 63.6025 16.8058L67.725 13.0939C68.1589 14.9499 68.4482 17.4932 67.725 19.4179C66.4955 22.9235 63.8195 27.3228 58.4675 28.4226C52.9709 29.5224 48.0529 28.2851 47.9805 28.2851C47.185 28.0789 46.3894 28.4914 46.1724 29.2475C45.9555 30.0036 46.3894 30.7597 47.185 30.9659C47.3296 31.0347 49.9333 31.6533 53.5495 31.6533C55.2129 31.6533 57.021 31.5158 58.9738 31.1034C64.1811 30.0723 68.2312 26.223 70.3286 20.3115C72.0644 15.8435 69.8947 10.2069 69.8224 9.93197Z" fill="#D8267E"/>
</svg>
