<svg width="79" height="89" viewBox="0 0 79 89" fill="none" xmlns="http://www.w3.org/2000/svg">
<path d="M43.1223 0C42.3903 3.55619e-05 41.6884 0.28856 41.1708 0.802114C40.6532 1.31567 40.3625 2.01219 40.3624 2.73846C40.3667 2.85318 40.3783 2.96751 40.3972 3.08077C40.3783 3.19402 40.3667 3.30836 40.3624 3.42308V8.9C40.3635 9.62556 40.6548 10.321 41.1723 10.8337C41.6897 11.3463 42.391 11.6343 43.1223 11.6343C43.8535 11.6343 44.5548 11.3463 45.0723 10.8337C45.5897 10.321 45.881 9.62556 45.8821 8.9V5.60696C53.424 6.28881 60.4365 9.74362 65.5428 15.293C70.6491 20.8424 73.4802 28.0855 73.4802 35.6C73.4802 43.1145 70.6491 50.3576 65.5428 55.907C60.4365 61.4564 53.424 64.9112 45.8821 65.593V62.3C45.881 61.5744 45.5897 60.879 45.0723 60.3663C44.5548 59.8537 43.8535 59.5657 43.1223 59.5657C42.391 59.5657 41.6897 59.8537 41.1723 60.3663C40.6548 60.879 40.3635 61.5744 40.3624 62.3V67.7769C40.4088 68.0028 40.4088 68.2357 40.3624 68.4615C40.3625 69.1878 40.6532 69.8843 41.1708 70.3979C41.6884 70.9114 42.3903 71.2 43.1223 71.2C52.6376 71.2 61.7633 67.4493 68.4916 60.773C75.22 54.0967 79 45.0417 79 35.6C79 26.1583 75.22 17.1033 68.4916 10.427C61.7633 3.7507 52.6376 1.40692e-07 43.1223 0Z" fill="#1B3344"/>
<path d="M30.0913 35.5999C30.0912 34.8736 29.8004 34.1771 29.2829 33.6636C28.7653 33.15 28.0634 32.8615 27.3314 32.8615H2.75982C2.02787 32.8615 1.3259 33.15 0.808337 33.6635C0.290769 34.1771 0 34.8736 0 35.5999C0 36.3262 0.290769 37.0227 0.808337 37.5363C1.3259 38.0499 2.02787 38.3384 2.75982 38.3384H27.3314C28.0634 38.3383 28.7653 38.0498 29.2829 37.5363C29.8004 37.0227 30.0912 36.3262 30.0913 35.5999Z" fill="#1B3344"/>
<path d="M27.5982 15.7462H9.43701C8.70579 15.7473 8.0049 16.0363 7.48824 16.5498C6.97158 17.0632 6.6814 17.7591 6.6814 18.4847C6.6814 19.2102 6.97158 19.9061 7.48824 20.4196C8.0049 20.933 8.70579 21.222 9.43701 21.2231H27.5982C28.3294 21.222 29.0303 20.933 29.547 20.4196C30.0636 19.9061 30.3538 19.2102 30.3538 18.4847C30.3538 17.7591 30.0636 17.0632 29.547 16.5498C29.0303 16.0363 28.3294 15.7473 27.5982 15.7462Z" fill="#1B3344"/>
<path d="M27.5982 49.9769H9.43701C8.70579 49.978 8.0049 50.267 7.48824 50.7805C6.97158 51.2939 6.6814 51.9898 6.6814 52.7154C6.6814 53.441 6.97158 54.1369 7.48824 54.6503C8.0049 55.1637 8.70579 55.4527 9.43701 55.4539H27.5982C28.3294 55.4527 29.0303 55.1637 29.547 54.6503C30.0636 54.1369 30.3538 53.441 30.3538 52.7154C30.3538 51.9898 30.0636 51.2939 29.547 50.7805C29.0303 50.267 28.3294 49.978 27.5982 49.9769Z" fill="#1B3344"/>
<path d="M45.2737 39.6849L62.7388 25.0208C63.2643 24.5795 63.6057 23.9601 63.6965 23.283C63.7872 22.6058 63.6209 21.9193 63.2299 21.3571C62.8388 20.7949 62.251 20.3971 61.5807 20.2412C60.9105 20.0852 60.2057 20.1822 59.6035 20.5132L39.591 31.5149C39.304 31.6748 39.0326 31.8607 38.7801 32.0702C38.2762 32.4933 37.8612 33.0107 37.5588 33.5929C37.2565 34.1751 37.0727 34.8107 37.0178 35.4634C36.963 36.1161 37.0383 36.7731 37.2394 37.397C37.4405 38.0208 37.7635 38.5992 38.1898 39.0992C38.6162 39.5992 39.1377 40.011 39.7244 40.311C40.3112 40.611 40.9517 40.7934 41.6095 40.8478C42.2673 40.9022 42.9295 40.8275 43.5582 40.6279C44.1869 40.4284 44.7698 40.1079 45.2737 39.6849ZM40.1609 37.1555C39.8509 36.7097 39.681 36.1827 39.6728 35.6412C39.6645 35.0996 39.8183 34.5678 40.1147 34.1129C40.4111 33.6581 40.8368 33.3007 41.3379 33.0859C41.839 32.8711 42.393 32.8086 42.9299 32.9063C43.4668 33.0039 43.9625 33.2573 44.3542 33.6345C44.746 34.0117 45.0162 34.4957 45.1307 35.0252C45.2453 35.5548 45.199 36.1062 44.9977 36.6096C44.7964 37.1131 44.4492 37.546 44 37.8537C43.3976 38.2662 42.6547 38.4244 41.9347 38.2935C41.2148 38.1625 40.5767 37.7532 40.1609 37.1555Z" fill="#D8267E"/>
</svg>
