<svg width="23" height="30" viewBox="0 0 23 30" fill="none" xmlns="http://www.w3.org/2000/svg">
<circle cx="11.5" cy="14.5" r="11.5" fill="#00A3DA"/>
<path d="M10.3516 16.8486C10.3516 16.1833 10.4268 15.6592 10.5771 15.2764C10.7275 14.889 10.9714 14.554 11.3086 14.2715C11.6458 13.9889 11.901 13.7314 12.0742 13.499C12.252 13.262 12.3408 13.0023 12.3408 12.7197C12.3408 12.0316 12.0446 11.6875 11.4521 11.6875C11.1787 11.6875 10.9577 11.7878 10.7891 11.9883C10.6204 12.1888 10.5316 12.46 10.5225 12.8018H8.21191C8.22103 11.8903 8.50814 11.1816 9.07324 10.6758C9.63835 10.1654 10.4313 9.91016 11.4521 9.91016C12.4684 9.91016 13.2546 10.1449 13.8105 10.6143C14.3711 11.0837 14.6514 11.7513 14.6514 12.6172C14.6514 12.9954 14.5762 13.3395 14.4258 13.6494C14.2754 13.9593 14.0339 14.276 13.7012 14.5996L12.915 15.3311C12.6917 15.5452 12.5368 15.7663 12.4502 15.9941C12.3636 16.2174 12.3158 16.5023 12.3066 16.8486H10.3516ZM10.0713 18.9268C10.0713 18.5895 10.1921 18.3138 10.4336 18.0996C10.6797 17.8809 10.985 17.7715 11.3496 17.7715C11.7142 17.7715 12.0173 17.8809 12.2588 18.0996C12.5049 18.3138 12.6279 18.5895 12.6279 18.9268C12.6279 19.264 12.5049 19.542 12.2588 19.7607C12.0173 19.9749 11.7142 20.082 11.3496 20.082C10.985 20.082 10.6797 19.9749 10.4336 19.7607C10.1921 19.542 10.0713 19.264 10.0713 18.9268Z" fill="white"/>
</svg>
